<svg xmlns="http://www.w3.org/2000/svg" width="400" height="408.9"><path d="M193.2 111.4a104 104 0 01-12.4 5.6 5818.4 5818.4 0 01-51.2 22.4 147.3 147.3 0 00-19.5 9c-1.7 1.7-1.7 1.8-1.6 49.8.2 46.4.3 49.4 1.7 53.8.3 1 .6 2.1.6 2.6 0 .4.2 1.3.5 1.8l.9 2.2c.3 1.2 1 3 3 7a70.8 70.8 0 0022 24.3 365.1 365.1 0 0015.8 11.3l5 3.6a1294 1294 0 0116.8 12.1l14.7 10.6c4.1 3 9.2 3.5 12.4 1a2060.2 2060.2 0 0122.3-16.1 524.7 524.7 0 0114.8-10.6 5199 5199 0 0122.8-16.7c10.8-8 20.2-25 21.8-39.1.6-5.6.6-94.2 0-95.8-.9-2.3-.4-2-20.2-10.7a1781 1781 0 01-24-10.5 1895 1895 0 00-32.8-14.4 336 336 0 01-6.7-3c-2-1-5.2-1-6.7-.2m7.2 12.6a755 755 0 0119.4 8.6l1.8.6c.4 0 .8.2 1 .4l3.4 1.6 5.6 2.5c3.6 1.7 5 2.3 11.2 4.9a394.5 394.5 0 0117.8 7.8c4.2 1.7 4.7 2 9 4 4 1.7 3.7-2.6 3.5 46.3-.2 48.3-.1 47.9-3.5 55.5a52 52 0 01-21.1 25 1647.4 1647.4 0 00-19 13.7 2255.5 2255.5 0 01-31.8 23.2c-.4.9-2.4 0-5.2-2a1069.4 1069.4 0 00-16.4-12 907.5 907.5 0 01-24.1-17.3c-.4-.3-2.6-2-5-3.6a70.9 70.9 0 01-17.2-15c-2.4-3.1-2.3-3-2.9-4.2l-.9-1.6-.8-1.6-.8-1.6a50.5 50.5 0 01-4.4-15.7c-.6-5.3-.6-86 0-87.1.4-.7 2.6-2 7-3.8l2.6-1.1a4273.1 4273.1 0 0137.2-16.3l3.4-1.6c.2-.2.6-.4 1-.4.3 0 1.5-.5 2.6-1l2.3-1 3.4-1.4a373.4 373.4 0 0115.5-7c.6-.7 1.6-.4 5.4 1.2m-6.6 11.2a126.8 126.8 0 00-10.4 4.6 71.2 71.2 0 00-5.4 2.3 328 328 0 00-8.8 3.9 481.3 481.3 0 00-35 15.4c-1.4.4-3.3 2.8-3.6 4.3-.6 3.2 0 77.6.7 80.5a39.6 39.6 0 0017.8 25.1l9.6 7a1379.9 1379.9 0 0021.1 15.2 509.8 509.8 0 018.7 6.3l4.2 2.9c3.8 2.6 6.2 1.5 21.2-9.9l1.7-1.2a517 517 0 0017-12.2l9.3-6.8c12.9-9.2 18.2-17 19.9-29.3 1-7 .9-76.1 0-78.5-.8-1.9-2.3-3-5.8-4.6a38 38 0 01-3.5-1.6c-.5-.4-1.2-.6-1.6-.6a55.3 55.3 0 00-6.3-2.8 1428.1 1428.1 0 01-22-9.6 1167.5 1167.5 0 01-16.2-7.1c-9.3-4.2-9.8-4.4-12.6-3.3m4.1 11.6a56.3 56.3 0 006.7 3 384 384 0 0014.2 6.2l7.8 3.4 11.8 5.2c12.4 5.5 12.4 5.5 12.6 6.4.7 2.9 0 72-.9 74.6-2 6.5-6.6 12.5-13.1 17a296 296 0 00-14.3 10.2 13842 13842 0 00-21.5 15.5c-4.7 3.4-5.1 3.5-8.1 1.2a522 522 0 00-10-7.3 1830 1830 0 00-25.7-18.5c-9-6.2-13-11.3-15-19.3-.7-2.8-.8-5-.8-38.5v-35.5l1.5-.7a651.3 651.3 0 0129.1-12.9 294 294 0 019.7-4.2 930 930 0 0113-5.9c.6-.4 2.2-.4 3 0m29.8 30.2c-1.9.5-2.4 1.1-9.6 11.9a5772.7 5772.7 0 01-29.6 44.4c-4.8 7.1-4.3 7-10.3 2.3-12.6-9.7-14.4-10.6-17.4-8.9-4.5 2.7-3.3 8 2.7 11.8a225.8 225.8 0 0112.1 9l4 3c2.2 2.6 6.4 3.5 8.8 1.8a41 41 0 007.1-9.9c.2 0 9-13.1 19.7-29.1l19.4-29v-2.3c0-2.5-1-3.8-3.5-4.9-1.7-.7-1.6-.7-3.4-.1" fill-rule="evenodd"/></svg>