<svg xmlns="http://www.w3.org/2000/svg" width="400" height="409.4"><path d="M172.6 83c-.9.4-3 1-4.7 1.4a30 30 0 00-5 1.7c-1 .6-2.4 1.1-3 1.2-5 1.2-17.5 12.6-17.5 16 0 2.1 2.6 4.5 4.4 4a5.4 5.4 0 003.2-2.3c2.2-3.6 8.3-8.5 13.5-10.7 5.3-2.4 9.2-2.7 31.5-2.7 26.5 0 29.4.5 37.7 6 3.8 2.5 9.7 9.1 9.7 11l1.1 2.2c2.5 4 4.5 29.5 2.5 30.8-1.7 1-4-.2-5.2-3-1.3-3-3.7-3.3-10.3-1.2a120 120 0 01-41.9 0 33 33 0 00-4.8-1.2 75 75 0 01-15.8-5.4c-.4 0-1-.3-1.2-.6-.2-.3-1.3-1-2.3-1.4l-4.7-2.7c-6.3-4.4-7-4.6-8.6-3.7-2 1-2.5 3.1-2.2 10.5.3 7.8 0 8.5-2.4 9-2.7.4-2.8.2-2.6-10.7 0-7 .2-10.2.6-11.5 1.2-3.8.7-5.6-1.7-6.8-3.4-1.7-5-.4-6 4.7-.5 3-.9 56.7-.3 57.6l.6 3.4c.3 1.8.8 3.6 1.2 4.2a32.4 32.4 0 0015.4 15.4c3 .8 5.8 2.6 9.5 6.2l5.7 5.4c2.9 2.6 2.6 8.1-.6 8.8-.6.1-1.4.5-1.6.8-.3.3-1.1.8-2 1l-3 1.4c-2.1 1.2-3 1.2-5 .2s-3.3-1-6.2 0a68 68 0 01-6.2 1.7c-2 .4-4.7 1.1-5.8 1.5-1.1.4-2.8.8-3.8 1-1 .1-3.2.7-4.8 1.2a110.3 110.3 0 01-13.2 3.4l-6.4 1.8-4.8 1.2c-2.9.5-9.8 4-13.8 7A45.6 45.6 0 0079.6 258c-.6 1.3-1.2 3.2-1.4 4.6a120 120 0 01-1 6.4c-.4 2.2-.8 6.4-1 9.4-.1 3-.6 8.4-1 12-1 7.9-1.6 16.4-1.6 23.3v5L75 320l1.4 1.2h238l1.3-1.2c2.1-1.9 1.7-16.3-1-37.4-.4-2.4-.8-6.5-.9-9a58.8 58.8 0 00-3-16 40.4 40.4 0 00-31-25c-4-1.2-9.9-2.8-15.2-4-2.2-.5-4.6-1.2-5.4-1.5a16 16 0 00-3.4-.9c-1.1-.1-3.3-.7-5-1.2a51 51 0 00-5.4-1.4l-5.2-1.4c-3.3-1.2-4.8-1.2-6.5-.2-1.7 1-2.7 1-4.7 0l-3.4-1.6c-8.3-3.8-8.6-6.9-1-13.6 2.3-2 4.6-4.3 5-5a17 17 0 017-3.6c6.2-2 16.6-13.6 16.6-18.6l.6-3c1-3 .9-54 0-59-1-5.1-1.2-6-2.8-9.5-4-8.9-14.2-19.3-20.6-20.8-.5 0-2-.6-3-1.1a35 35 0 00-4.7-1.6 86 86 0 01-4.8-1.4c-3.1-1-42.6-1.2-45.3-.2m-12.4 52.2l2 1.2c.3 0 1.2.5 2.2 1.2 1 .6 2.3 1.3 3 1.4l3.2 1.2c2.8 1.3 9 3.3 12.7 4 1.7.3 4.3 1 5.7 1.4 6 1.8 34.7 2 39.8.2 2-.7 3.4-.8 4.4-.2a152 152 0 010 33.3l-.8 3.1a48 48 0 01-7 12.8c-4.1 6-13.2 12.2-20.6 13.8l-5.6 1.4a42.5 42.5 0 01-21.1-4c-3.2 0-15.6-13.1-17.5-18.5-.3-.8-1-2-1.4-2.6-.4-.6-.9-1.8-1-2.7a33 33 0 00-1-3.9c-1.2-3.4-1.2-43.2-.1-43.9 1-.6 1.2-.5 3.1.8m-10.7 20.7c.1 5.3-.2 6-2.3 5-1-.7-1.2-8.1-.2-9.6 1.6-2.2 2.4-.7 2.5 4.6m94.4-4.5c2 2.6.8 10-1.6 9.7l-1.3-.1-.1-4.4c-.2-6.3.8-8 3-5.2M147.4 170c1.1.5 1.8 2.1 1.8 4.4 0 2 .7 5.8 1.4 8.3.6 1.8.8 3.6.4 3.6-1.6 0-5.8-5.4-5.8-7.5l-.8-3.7c-1.3-4.8-.2-6.6 3-5.1m98.6.2c1.4 1.2-.1 9.2-2.3 12.5-3.5 5.2-5 4.6-3.5-1.4.6-2.2 1-5 1-6.4 0-4.3 2.4-6.6 4.8-4.7M182.7 216a80 80 0 0012.3 2.4c1.4 0 5-.7 13-2.5 3-.6 3.8 0 4.2 2.8.5 3.6 3 6 7.6 7.5 6 2 6.3 3.3 1.5 7.6a530 530 0 00-9.7 9.2c-15.4 15-14.9 14.6-16.4 14.6-1.5 0 .4 1.7-24.8-22.8a51.4 51.4 0 00-3.9-3.5c-2-1.4-.5-3.6 3.3-4.7 5-1.5 8-4.3 8.6-7.9.5-3 1.5-3.7 4.3-2.7m-29 14c.5.1 11.3 10.4 19.5 18.4l9.4 9c9.8 9.4 8.7 7 8.6 20.7 0 14 .3 15.5 4.2 15.5 3.3 0 3.5-.9 3.6-15.3V266l4.2-4.1a9405.1 9405.1 0 0122.4-21.6c12.5-12 12.6-12 15.1-9.4 1 1 1.5 19.3.7 20.7-.3.5-5 2.8-5.7 2.8-1.2 0-5.2 4.8-6.5 7.8l-1.2 3v34.5l1 1.5c.9 1.4 5.2 4.3 7.8 5.1 3.2 1.2 6 0 6-2.6 0-2-.3-2.4-3-4.3-4.3-3-4-1.3-3.8-18.5v-15.1l1.1-1.8c3.5-5.6 15.4-4.7 17.7 1.3.6 1.7.5 30.7-.1 31.5-.3.4-1 1-1.7 1.3-2.6 1.4-5 3.9-5 5.3 0 3.5 4.9 4.6 8.6 1.8.9-.7 2.1-1.5 2.8-1.8.7-.3 1.6-1 2.2-1.6l1-1v-37l-1.3-2.6a14.2 14.2 0 00-7.8-7.4c-4-1.2-4-1.2-4-11-.1-9.4 0-9.8 2.2-9.5 2.8.5 6.8 1.5 7.9 2 .6.4 1.9.8 2.9 1 1 0 3.9.8 6.5 1.5s5.4 1.5 6.2 1.6c.8.1 2.7.7 4.4 1.2l4.4 1.2c4.6 1 11.2 5.8 15.8 11.7a37.5 37.5 0 015.8 17l.6 7.7 1 12.4c.2 3.5.8 9 1.2 12 1.5 10.8 3.2 9.8-15.8 9.8-19.3 0-18 .6-18.4-7.6-1-22.5-2-27.9-5.2-28.5-2.8-.5-4 2-3.6 8 .6 12.1 1.5 22.5 1.8 24 .5 1.9-.2 3.4-1.7 3.9-.5 0-32.4.2-70.8.2h-70l-1-1c-1-1-1.1-1.6-.5-3.3 2-5.2 1.7-10.4-.8-11.9-4-2.4-6.3 1.5-6.4 11.2 0 5.2.7 5-18.6 5l-15.2-.2-.6-1c-.5-1-.5-1.5.1-4.7.4-2 .9-6.7 1-10.5.3-3.9.7-8.5 1-10.4l.7-9.4c.7-10.6 3-18.6 6.6-23.2a35.9 35.9 0 0115.1-11.2c1-.1 3-.7 4.7-1.2l6.4-1.8c6.5-1.5 10.2-2.5 12.6-3.3 4.7-1.5 5.2-1.6 6.3-1.1l1.1.4v16.5l-1.4 1.3c-5.3 4.5-6 5.3-6.9 7.9-4.8 13.5 12.9 23.5 21.9 12.3 4.4-5.6 3-15.4-2.8-18.6-2.8-1.6-2.9-1.9-3-12.2 0-10.6-.1-10 3.9-11.4 2.7-1 3.7-1.1 4.8-.7m-10 30.8c3.5 3.1 2 8.7-2.7 9.2-3.1.4-6.4-3.8-5.2-6.5 1.7-3.5 5.5-4.8 7.9-2.7M121 276.6c-3 1.2-4.8 10-2.6 12.5 2.9 3.4 6.3 1.7 7-3.5.1-1 .4-2.4.7-3.1.5-1.8-.2-3.7-2-5.3-1.5-1.4-1.5-1.4-3.1-.6" fill-rule="evenodd"/></svg>